<?xml version="1.0" encoding="utf-8"?>
<!-- Generator: Adobe Illustrator 17.0.0, SVG Export Plug-In . SVG Version: 6.00 Build 0)  -->
<!DOCTYPE svg PUBLIC "-//W3C//DTD SVG 1.1//EN" "http://www.w3.org/Graphics/SVG/1.1/DTD/svg11.dtd">
<svg version="1.1" xmlns="http://www.w3.org/2000/svg" xmlns:xlink="http://www.w3.org/1999/xlink" x="0px" y="0px"
	 width="60.992px" height="60.992px" viewBox="0 0 60.992 60.992" enable-background="new 0 0 60.992 60.992" xml:space="preserve">
<g id="Layer_1" display="none">
	
		<image display="inline" overflow="visible" width="61" height="61" xlink:href="60EF4A86.jpg"  transform="matrix(0.9999 0 0 0.9999 0 0)">
	</image>
</g>
<g id="Icon">
	<path fill="#FFFFFF" d="M39.086,33.422l2.791-8.354c0.14-0.402,0.034-0.643-0.079-0.802c-0.289-0.408-0.885-0.412-1-0.412
		l-15.775-0.003l-0.421-1.997c-0.114-0.471-0.45-0.921-1.127-0.921h-4.433c-0.46,0-0.71,0.215-0.71,0.645v1.153
		c0,0.416,0.249,0.524,0.726,0.524h3.743l2.865,12.163c-0.455,0.482-0.703,1.185-0.703,1.84c0,1.442,1.148,2.772,2.616,2.772
		c1.385,0,2.424-1.298,2.592-2.072h5.579c0.169,0.774,1.01,2.103,2.592,2.103c1.442,0,2.614-1.249,2.614-2.689
		c0-1.432-0.871-2.702-2.599-2.702c-0.719,0-1.572,0.387-1.968,0.967h-6.856c-0.498-0.774-1.177-1.014-1.864-1.041l-0.095-0.507
		h10.431C38.792,34.088,38.947,33.802,39.086,33.422z M38.363,36.356c0.542,0,0.983,0.44,0.983,0.983s-0.44,0.983-0.983,0.983
		s-0.984-0.44-0.984-0.983C37.38,36.796,37.82,36.356,38.363,36.356z M28.552,37.339c0,0.549-0.446,0.995-0.993,0.995
		c-0.549-0.002-0.995-0.447-0.995-0.995s0.447-0.995,0.995-0.995C28.106,36.344,28.552,36.79,28.552,37.339z"/>
</g>
</svg>
