<?xml version="1.0" encoding="utf-8"?>
<!-- Generator: Adobe Illustrator 17.0.0, SVG Export Plug-In . SVG Version: 6.00 Build 0)  -->
<!DOCTYPE svg PUBLIC "-//W3C//DTD SVG 1.1//EN" "http://www.w3.org/Graphics/SVG/1.1/DTD/svg11.dtd">
<svg version="1.1" id="Layer_1" xmlns="http://www.w3.org/2000/svg" xmlns:xlink="http://www.w3.org/1999/xlink" x="0px" y="0px"
	 width="100px" height="100px" viewBox="0 0 100 100" enable-background="new 0 0 100 100" xml:space="preserve">
<g>
	<rect x="40.494" y="40.483" fill="#FFFFFF" width="13.519" height="13.519"/>
	<polygon fill="#FFFFFF" points="81.118,0 18.882,0 5.362,0 5.362,13.519 5.362,75.674 5.362,89.11 5.362,89.193 40.494,89.193 
		54.013,89.193 54.053,89.193 54.053,75.674 54.013,75.674 54.013,62.155 40.494,62.155 40.494,75.674 18.882,75.674 18.882,13.519 
		81.118,13.519 81.118,75.784 75.76,75.784 62.241,75.784 62.241,89.687 62.241,100 75.76,100 75.76,89.687 94.638,89.687 
		94.638,89.193 94.638,75.784 94.638,13.519 94.638,0 	"/>
</g>
<rect x="0" y="0" fill="none" width="100" height="100"/>
</svg>
