<?xml version="1.0" encoding="utf-8"?>
<!-- Generator: Adobe Illustrator 17.0.0, SVG Export Plug-In . SVG Version: 6.00 Build 0)  -->
<!DOCTYPE svg PUBLIC "-//W3C//DTD SVG 1.1//EN" "http://www.w3.org/Graphics/SVG/1.1/DTD/svg11.dtd">
<svg version="1.1" xmlns="http://www.w3.org/2000/svg" xmlns:xlink="http://www.w3.org/1999/xlink" x="0px" y="0px"
	 width="60.992px" height="60.992px" viewBox="0 0 60.992 60.992" enable-background="new 0 0 60.992 60.992" xml:space="preserve">
<g id="Layer_1" display="none">
	
		<image display="inline" overflow="visible" width="61" height="61" xlink:href="DFA8667D.jpg"  transform="matrix(0.9999 0 0 0.9999 0 0)">
	</image>
</g>
<g id="Logo">
	<g>
		<rect x="27.058" y="28.136" fill="#FFFFFF" width="5.009" height="5.009"/>
		<polygon fill="#FFFFFF" points="42.109,13.138 19.051,13.138 14.042,13.138 14.042,18.147 14.042,41.174 14.042,46.152 
			14.042,46.182 27.058,46.182 32.067,46.182 32.081,46.182 32.081,41.174 32.067,41.174 32.067,36.165 27.058,36.165 
			27.058,41.174 19.051,41.174 19.051,18.147 42.109,18.147 42.109,41.214 40.124,41.214 35.115,41.214 35.115,46.366 
			35.115,50.186 40.124,50.186 40.124,46.366 47.117,46.366 47.117,46.182 47.117,41.214 47.117,18.147 47.117,13.138 		"/>
	</g>
</g>
</svg>
