<?xml version="1.0" encoding="utf-8"?>
<!-- Generator: Adobe Illustrator 17.0.0, SVG Export Plug-In . SVG Version: 6.00 Build 0)  -->
<!DOCTYPE svg PUBLIC "-//W3C//DTD SVG 1.1//EN" "http://www.w3.org/Graphics/SVG/1.1/DTD/svg11.dtd">
<svg version="1.1" id="Layer_1" xmlns:sketch="http://www.bohemiancoding.com/sketch/ns"
	 xmlns="http://www.w3.org/2000/svg" xmlns:xlink="http://www.w3.org/1999/xlink" x="0px" y="0px" width="24px" height="24px"
	 viewBox="0 0 24 24" enable-background="new 0 0 24 24" xml:space="preserve">
<title></title>
<desc></desc>
<path d="M22.847,20.659l-6.303-6.303c0.96-1.377,1.523-3.051,1.523-4.856c0-4.694-3.806-8.5-8.5-8.5s-8.5,3.806-8.5,8.5
	c0,4.694,3.806,8.5,8.5,8.5c1.805,0,3.479-0.563,4.855-1.522l0.001-0.001l6.304,6.304c0.117,0.117,0.303,0.12,0.423,0l1.699-1.699
	C22.965,20.966,22.959,20.771,22.847,20.659z M9.586,16.035c-3.6,0-6.518-2.918-6.518-6.518C3.069,5.918,5.987,3,9.586,3
	s6.518,2.918,6.518,6.518C16.104,13.117,13.186,16.035,9.586,16.035z"/>
</svg>
