<?xml version="1.0" encoding="utf-8"?>
<!-- Generator: Adobe Illustrator 17.0.0, SVG Export Plug-In . SVG Version: 6.00 Build 0)  -->
<!DOCTYPE svg PUBLIC "-//W3C//DTD SVG 1.1//EN" "http://www.w3.org/Graphics/SVG/1.1/DTD/svg11.dtd">
<svg version="1.1" xmlns="http://www.w3.org/2000/svg" xmlns:xlink="http://www.w3.org/1999/xlink" x="0px" y="0px"
	 width="36.995px" height="36.995px" viewBox="0 0 36.995 36.995" enable-background="new 0 0 36.995 36.995" xml:space="preserve">
<g id="Layer_1" display="none">
	
		<image display="inline" overflow="visible" width="37" height="37" xlink:href="988A5F16.jpg"  transform="matrix(0.9999 0 0 0.9999 0 0)">
	</image>
</g>
<g id="Insta">
	<path id="instagram_1_" fill="#FFFFFF" d="M24.909,11.331H13.695c-0.737,0-1.335,0.597-1.335,1.335v11.215
		c0,0.737,0.598,1.335,1.335,1.335h11.214c0.738,0,1.335-0.597,1.335-1.335V12.666C26.244,11.929,25.646,11.331,24.909,11.331z
		 M19.302,15.603c1.474,0,2.67,1.196,2.67,2.67s-1.196,2.67-2.67,2.67s-2.67-1.196-2.67-2.67S17.827,15.603,19.302,15.603z
		 M24.642,23.079c0,0.295-0.239,0.535-0.534,0.535h-9.612c-0.295,0-0.534-0.24-0.534-0.535v-5.873h1.208
		c-0.089,0.341-0.14,0.698-0.14,1.068c0,2.359,1.913,4.272,4.272,4.272s4.272-1.913,4.272-4.272c0-0.37-0.052-0.726-0.14-1.068
		h1.208V23.079z M24.642,15.069c0,0.295-0.239,0.534-0.534,0.534h-1.602c-0.295,0-0.534-0.239-0.534-0.534v-1.601
		c0-0.295,0.239-0.535,0.534-0.535h1.602c0.295,0,0.534,0.24,0.534,0.535V15.069z"/>
</g>
<g id="Twitter" display="none">
	<path id="XMLID_22_" display="inline" fill="#FFFFFF" d="M16.35,24.005c5.694,0,8.809-4.719,8.809-8.809
		c0-0.133,0-0.265-0.009-0.402c0.606-0.44,1.127-0.98,1.543-1.605c-0.563,0.251-1.164,0.417-1.78,0.488
		c0.648-0.388,1.131-0.994,1.363-1.713c-0.606,0.36-1.273,0.615-1.964,0.753c-1.174-1.245-3.133-1.306-4.378-0.133
		c-0.805,0.757-1.145,1.884-0.895,2.958c-2.49-0.123-4.809-1.302-6.381-3.233c-0.824,1.415-0.402,3.223,0.956,4.132
		c-0.492-0.014-0.975-0.147-1.406-0.388c0,0.014,0,0.024,0,0.038c0,1.472,1.041,2.741,2.485,3.034
		c-0.454,0.123-0.932,0.142-1.396,0.052c0.407,1.259,1.567,2.125,2.892,2.149c-1.098,0.861-2.452,1.33-3.843,1.33
		c-0.246,0-0.492-0.014-0.738-0.043C13.018,23.522,14.665,24.005,16.35,24.005"/>
</g>
</svg>
