<?xml version="1.0" encoding="utf-8"?>
<!-- Generator: Adobe Illustrator 17.0.0, SVG Export Plug-In . SVG Version: 6.00 Build 0)  -->
<!DOCTYPE svg PUBLIC "-//W3C//DTD SVG 1.1//EN" "http://www.w3.org/Graphics/SVG/1.1/DTD/svg11.dtd">
<svg version="1.1" xmlns="http://www.w3.org/2000/svg" xmlns:xlink="http://www.w3.org/1999/xlink" x="0px" y="0px"
	 width="60.992px" height="60.992px" viewBox="0 0 60.992 60.992" enable-background="new 0 0 60.992 60.992" xml:space="preserve">
<g id="Layer_1" display="none">
	
		<image display="inline" overflow="visible" width="61" height="61" xlink:href="62FF0B42.jpg"  transform="matrix(0.9999 0 0 0.9999 0 0)">
	</image>
</g>
<g id="Icon">
	<path fill="#FFFFFF" d="M14.5,18.47v23.417h32.297V18.47H14.5z M16.5,38.644V21.893l8.517,8.557L16.5,38.644z M32.33,34.418
		l2.54-2.552l8.334,8.02H18.089l8.339-8.02l2.567,2.579C29.894,35.285,31.395,35.291,32.33,34.418z M30.94,32.982
		c-0.155,0.144-0.437,0.134-0.555,0.026l-2.52-2.531l0.024-0.023l-9.863-9.984h25.252L30.94,32.982z M36.28,30.45l8.517-8.557
		v16.752L36.28,30.45z"/>
</g>
</svg>
