<?xml version="1.0" encoding="utf-8"?>
<!-- Generator: Adobe Illustrator 17.0.0, SVG Export Plug-In . SVG Version: 6.00 Build 0)  -->
<!DOCTYPE svg PUBLIC "-//W3C//DTD SVG 1.1//EN" "http://www.w3.org/Graphics/SVG/1.1/DTD/svg11.dtd">
<svg version="1.1" xmlns="http://www.w3.org/2000/svg" xmlns:xlink="http://www.w3.org/1999/xlink" x="0px" y="0px"
	 width="32.297px" height="61.875px" viewBox="14.5 -0.441 32.297 61.875" enable-background="new 14.5 -0.441 32.297 61.875"
	 xml:space="preserve">
<g id="BG" display="none">
	<rect x="0" display="inline" stroke="#000000" stroke-miterlimit="10" width="60.992" height="60.992"/>
</g>
<g id="Layer_1">
	<g id="Layer_1_1_" display="none">
		
			<image display="inline" overflow="visible" enable-background="new    " width="61" height="62" xlink:href="192A8154.jpg"  transform="matrix(0.9917 0 0 0.9917 0.2489 -0.2469)">
		</image>
	</g>
	<g id="Layer_1_copy" display="none">
		
			<image display="inline" overflow="visible" enable-background="new    " width="61" height="61" xlink:href="192A8155.jpg"  transform="matrix(0.707 -0.707 0.707 0.707 -12.6319 30.4962)">
		</image>
	</g>
	<g id="Layer_2">
		<polygon fill="#FFFFFF" points="34.232,29.4 28.851,24.018 27.117,25.753 32.498,31.134 27.117,36.515 28.851,38.249 
			34.232,32.868 35.967,31.134 		"/>
	</g>
</g>
<g id="message" display="none">
	<g id="Icon" display="inline">
		<path fill="#FFFFFF" d="M14.5,17.47v23.417h32.297V17.47H14.5z M16.5,37.644V20.893l8.517,8.557L16.5,37.644z M32.33,33.418
			l2.54-2.552l8.334,8.02H18.089l8.339-8.02l2.567,2.579C29.894,34.285,31.395,34.291,32.33,33.418z M30.94,31.982
			c-0.155,0.144-0.437,0.134-0.555,0.026l-2.52-2.531l0.024-0.023l-9.863-9.984h25.252L30.94,31.982z M36.28,29.45l8.517-8.557
			v16.752L36.28,29.45z"/>
	</g>
</g>
</svg>
